<svg xmlns="http://www.w3.org/2000/svg" width="153" height="48" viewBox="0 0 153 48"><style>.a{font: normal bold 44px Open Sans, sans-serif;fill:#2b853e;font-weight:800}.b{font: normal bold 8px Open Sans, sans-serif;fill:#FFF}</style><rect width="152" height="32" x="0" y="8" fill="#fd0"/><text x="0" y="7" class="b"><tspan x="0" y="7">G</tspan><tspan x="10" y="7">O</tspan><tspan x="20" y="7">V</tspan><tspan x="30" y="7">E</tspan><tspan x="40" y="7">R</tspan><tspan x="50" y="7">N</tspan><tspan x="60" y="7">O</tspan><tspan x="94" y="7">F</tspan><tspan x="103" y="7">E</tspan><tspan x="112" y="7">D</tspan><tspan x="121" y="7">E</tspan><tspan x="130" y="7">R</tspan><tspan x="139" y="7">A</tspan><tspan x="148" y="7">L</tspan></text><text class="a"><tspan x="-5" y="40">B</tspan><tspan x="26" y="40">R</tspan><tspan x="58" y="40">A</tspan><tspan x="90" y="40">SIL</tspan></text><rect width="19" height="19" x="62" y="-36" transform="matrix(0.75,0.5,-0.75,0.5,0,0)" fill="#f47920"/><circle cx="73.5" cy="22.5" r="6" fill="#1e4382"/><path d="m67.5 20.5c-0.2 0.5-0.3 0.8-0.3 1.2 3.9-1.1 8.5-0.3 12 2.5 0.1-0.4 0.2-0.7 0.2-1.1-3.4-2.3-7.9-3.3-11.7-2.5" class="b"/><text x="0" y="48" class="b"><tspan x="0" y="48">P</tspan><tspan x="10" y="48">Á</tspan><tspan x="20" y="48">T</tspan><tspan x="30" y="48">R</tspan><tspan x="40" y="48">I</tspan><tspan x="48" y="48">A</tspan><tspan x="75" y="48">E</tspan><tspan x="84" y="48">D</tspan><tspan x="93" y="48">U</tspan><tspan x="102" y="48">C</tspan><tspan x="111" y="48">A</tspan><tspan x="120" y="48">D</tspan><tspan x="129" y="48">O</tspan><tspan x="138" y="48">R</tspan><tspan x="146" y="48">A</tspan></text></svg>
