<svg xmlns="http://www.w3.org/2000/svg" width="153" height="48" viewBox="0 0 153 48"><style>.a{font: normal bold 44px Open Sans, sans-serif;fill:#2b853e}.b{font: normal bold 8px Open Sans, sans-serif;fill:#FFF}</style><rect width="152" height="32" x="0" y="8" fill="#fd0"/><text x="0" y="7"><tspan x="0" y="7" class="b">G</tspan><tspan x="11" y="7" class="b">O</tspan><tspan x="22" y="7" class="b">V</tspan><tspan x="33" y="7" class="b">E</tspan><tspan x="44" y="7" class="b">R</tspan><tspan x="55" y="7" class="b">N</tspan><tspan x="66" y="7" class="b">O</tspan><tspan x="83" y="7" class="b">F</tspan><tspan x="94" y="7" class="b">E</tspan><tspan x="105" y="7" class="b">D</tspan><tspan x="116" y="7" class="b">E</tspan><tspan x="127" y="7" class="b">R</tspan><tspan x="138" y="7" class="b">A</tspan><tspan x="148" y="7" class="b">L</tspan><tspan x="-5" y="40" class="a">B</tspan><tspan x="26" y="40" class="a">R</tspan><tspan x="58" y="40" class="a">A</tspan><tspan x="90" y="40" class="a">SIL</tspan></text><rect width="19" height="19" x="58" y="-33" transform="matrix(0.8,0.5,-0.8,0.5,0,0)" fill="#f47920"/><circle cx="73" cy="22" r="6" fill="#1e4382"/><path d="m67 20c-0.112 0.357-0.191 0.73-0.233 1.113 3.786-1.076 8.365-0.158 11.737 2.366 0.108-0.355 0.182-0.724 0.22-1.101-3.424-2.382-7.893-3.283-11.723-2.378" class="b"/><text x="0" y="48"><tspan x="0" y="48" class="b">P</tspan><tspan x="11" y="48" class="b">Á</tspan><tspan x="22" y="48" class="b">T</tspan><tspan x="33" y="48" class="b">R</tspan><tspan x="44" y="48" class="b">I</tspan><tspan x="52" y="48" class="b">A</tspan><tspan x="75" y="48" class="b">E</tspan><tspan x="84" y="48" class="b">D</tspan><tspan x="93" y="48" class="b">U</tspan><tspan x="102" y="48" class="b">C</tspan><tspan x="111" y="48" class="b">A</tspan><tspan x="120" y="48" class="b">D</tspan><tspan x="129" y="48" class="b">O</tspan><tspan x="138" y="48" class="b">R</tspan><tspan x="146" y="48" class="b">A</tspan></text></svg>
