<svg xmlns="http://www.w3.org/2000/svg" version="1.1" width="155" height="48" viewBox="0 0 1022.7 406.2"><style>.s0{fill:#27337a;}.s1{fill:#fccb07;}.s2{fill:#fff;}.s3{fill:#23522f;}</style><rect fill="#ff0" width="1022.7" height="406.2" /><g transform="matrix(1.25,0,0,-1.25,0,406.2125)"><g transform="scale(0.1,0.1)"><path d="m66.2 0c-73.7 0-85.5 49.5-37.4 114.6 46.3 62.5 133.7 115.2 201.8 115.2 39.4 0 55.9-10.8 65.6-30.2-18.4-11.8-27.6-17.7-46.2-29.5-7.3 14.6-17.9 23.8-46.8 23.8-41.9 0-99.8-35.6-131.4-78.7C38.2 69.2 45.3 35.6 93.1 35.6c22.1 0 46.9 6.7 68.4 16.8 11.8 16.6 17.7 24.9 29.4 41.6-23.7 0-35.5 0-59.2 0 9.8 13.6 14.6 20.4 24.4 34 39.2 0 58.8 0 98 0C228 90.6 214.9 71.9 188.8 34.6 152.6 15.9 108 0 66.2 0M785.6 193.9c-45.2 0-98.7-35.2-125.8-78.7-27.2-43.5-16.4-79.4 30-79.4 46.5 0 99.9 35.2 125.8 78.7 25.9 43.5 15.1 79.3-30 79.3zM667.2 0c-72.4 0-90.1 51.7-50.4 114.6 39.7 62.8 121.9 115.2 191.3 115.2 69.4 0 87.4-51.7 50.4-114.6C821.5 52.4 739.6 0 667.2 0M1441.1 226c17.2 0 25.8 0 43 0C1416.1 150.7 1347.4 76.1 1278.1 2.2c-14.5 0-21.8 0-36.3 0 6.2 89.5 10.1 134.3 19.5 223.8 17.6 0 26.4 0 43.9 0-8-68.3-11.6-102.4-17.9-170.8 62.4 68.3 93.2 102.5 153.9 170.8M1999.8 191.1c-51.5 0-77.2 0-128.7 0-9.4-23.1-14.1-34.7-23.6-57.8 46.1 0 69.2 0 115.3 0-5.4-14-8.1-20.9-13.5-34.9-46.4 0-69.6 0-116 0-9.7-23.9-14.6-35.8-24.3-59.7 53.6 0 80.4 0 134 0-5.4-14-8-20.9-13.4-34.9-70.5 0-105.7 0-176.2 0 36.9 88.9 55.4 133.3 92.3 222.2 67 0 100.6 0 167.6 0-5.4-14-8-20.9-13.4-34.9M2471.8 190.4c-23.3 0-34.9 0-58.2 0-9.2-29.8-13.7-44.7-22.9-74.6 23.7 0 35.6 0 59.3 0 29 0 51.7 14.6 58.2 37.5 7 24.4-6.9 37.1-36.5 37.1zM2466 3.8c-14.2 31-21.2 46.5-34.8 77.4-20.4 0-30.6 0-51.1 0-9.5-31-14.3-46.5-23.8-77.4-16.5 0-24.8 0-41.4 0 27.9 88.9 41.9 133.3 69.9 222.2 40.3 0 60.5 0 100.8 0 52 0 76.4-27 64.2-70.4-10.3-36.8-39.3-59-74.2-67.6 15.3-33.6 23.1-50.5 39.2-84.1-19.5 0-29.3 0-48.8 0M3099 226c15.6 0 23.5 0 39.1 0-15.4-88.8-23.1-133.3-38.5-222.2-13.9 0-20.8 0-34.6 0-40.6 63.2-60.1 94.8-97.8 158.1-12.8-63.2-19.2-94.9-32.1-158.1-16.3 0-24.4 0-40.7 0 18.7 88.9 28 133.3 46.7 222.2 14.7 0 22.1 0 36.8 0 36-61.4 54.6-92.2 93.3-153.6 11.1 61.4 16.7 92.2 27.8 153.6M3624.2 193.9c-45.1 0-80-35.2-84.2-78.7-4.2-43.5 25.5-79.4 72-79.4 46.5 0 81.3 35.2 84.2 78.7 2.9 43.5-26.8 79.3-72 79.3zM3608.4 0c-72.4 0-117.5 51.7-110.9 114.6 6.5 62.8 61 115.2 130.4 115.2 69.4 0 114.7-51.7 110.9-114.6C3735 52.4 3680.7 0 3608.4 0M4708.5 190.4c-51.7 0-77.6 0-129.4 0 2.3-24.2 3.5-36.4 5.8-60.6 46.4 0 69.6 0 116.1 0 1.7-14.2 2.5-21.3 4.2-35.5-46.7 0-70.1 0-116.8 0 3.5-36.2 5.2-54.3 8.7-90.5-16.5 0-24.8 0-41.4 0-7.8 88.9-11.8 133.3-19.6 222.2 67.3 0 101 0 168.2 0 1.7-14.2 2.6-21.3 4.3-35.5M5246 191.1c-51.5 0-77.2 0-128.7 0 4.5-23.1 6.8-34.7 11.3-57.8 46.1 0 69.2 0 115.3 0 3-14 4.6-20.9 7.6-34.9-46.4 0-69.6 0-116.1 0 4.7-23.9 7-35.8 11.7-59.7 53.6 0 80.4 0 134 0 3.1-14 4.6-20.9 7.7-34.9-70.5 0-105.8 0-176.3 0-16.7 88.9-25.1 133.3-41.9 222.2 67 0 100.6 0 167.6 0 3.1-14 4.6-20.9 7.7-34.9M5705 190.4c-17.9 0-26.9 0-44.9 0 17.9-60.4 26.9-90.6 44.8-151.1 18.5 0 27.7 0 46.1 0 49.1 0 71.2 31.4 57.2 75.2-14 43.8-55.5 75.8-103.3 75.8zM5762 3.8c-35.1 0-52.7 0-87.8 0-25.7 88.9-38.6 133.3-64.3 222.2 33.7 0 50.6 0 84.3 0 71 0 135.8-47.9 156.4-110.8C5871.2 52.4 5836 3.8 5762 3.8M6367.8 191.1c-51.5 0-77.2 0-128.7 0 9.4-23.1 14-34.7 23.4-57.8 46.1 0 69.2 0 115.3 0 6-14 8.9-20.9 14.9-34.9-46.4 0-69.6 0-116.1 0 9.7-23.9 14.5-35.8 24.2-59.7 53.6 0 80.4 0 134 0 6-14 9-20.9 15-34.9-70.5 0-105.7 0-176.2 0-35.3 88.9-52.9 133.3-88.2 222.2 67 0 100.6 0 167.6 0 6-14 9-20.9 15-34.9M6840.3 190.4c-23.3 0-34.9 0-58.2 0 15.1-29.8 22.6-44.7 37.7-74.6 23.7 0 35.6 0 59.3 0 29 0 39.8 14.6 27.8 37.5-12.8 24.4-37.1 37.1-66.6 37.1zM6986.1 3.8c-39.4 31-58.9 46.5-97.7 77.4-20.4 0-30.6 0-51.1 0 15.7-31 23.5-46.5 39.2-77.4-16.5 0-24.8 0-41.4 0-44.3 88.9-66.4 133.3-110.7 222.2 40.3 0 60.5 0 100.8 0 52 0 98.3-27 121.5-70.4 19.6-36.8 8.7-59-19.3-67.6 42.6-33.6 64.1-50.5 107.5-84.1-19.5 0-29.3 0-48.8 0M7406.4 180.9c6.4-35.6 9.5-53.3 15.5-88.9 31.9 0 47.9 0 79.8 0-38.3 35.6-57.4 53.3-95.2 88.9zM7639.8 3.8c-17.5 0-26.2 0-43.7 0-23.2 21.5-34.7 32.2-57.7 53.6-44.1 0-66.1 0-110.2 0 3.5-21.5 5.2-32.2 8.5-53.6-16.9 0-25.4 0-42.4 0-12.1 89.5-19.1 134.3-34.5 223.8 14.7 0 22.1 0 36.8 0 80.7-75 161.7-149.6 243.3-223.8M7858.5 226c15.9 0 23.8 0 39.7 0 53.6-74.6 80.4-112 134-186.6 49.2 0 73.8 0 123 0 10.5-14.2 15.8-21.3 26.3-35.6-66 0-99.1 0-165.1 0C7953.2 92.7 7921.6 137.1 7858.5 226M6591.5 1625.4l460.7-829.9 717.7 0 292.7-424.4-1325.9 0-576.2 1254.2 431.1 0M1247.4 1362.9l-94.8-158.9 205.5 0c25.2 0 48.1 1.8 68.6 5.3 20.5 3.5 38.8 8.6 54.6 15.4 15.9 6.7 29.4 15.1 40.6 24.9 11.2 9.8 20.1 21 26.7 33.6l1.7 3.3c6.6 12.5 9.3 23.6 8.2 33.1-1.1 9.5-6.1 17.5-14.9 23.9-8.8 6.4-21.4 11.3-38 14.6-16.5 3.3-36.9 4.9-61.3 4.9l-196.9 0zm112.9-512.9 2 3.9c7.4 14.4 10.9 27.6 10.3 39.3-0.6 11.7-5.4 21.9-14.4 30.3-9 8.4-22.3 15-40.1 19.6-17.7 4.5-40 6.9-67 6.9l-249.9 0-119.4-200.1 257.4 0c28.1 0 54.1 2.6 77.8 7.5 23.7 4.9 45.1 11.9 63.8 20.9 18.7 8.9 34.9 19.6 48.2 31.7 13.3 12.1 23.8 25.5 31.3 40m2400.6 60.9 273.3 0-125.4 301.3-147.8-301.3 -1902.4 62.4 138.7 320.5c-17.5-22.8-37.8-43.8-60.6-63.1-23-19.4-48.5-37-76.2-52.9-27.9-16-57.9-30.1-89.7-42.6-31.9-12.5-65.6-23.2-100.7-32.3 23.7-6.6 45.6-14 65.6-22.4 20.1-8.4 38.2-17.8 54.2-28.4 16-10.6 29.9-22.3 41.4-35.4 11.6-13.1 20.7-27.6 27.3-43.5m960.3 247.2 0.9 3.4c4.8 18.6 4.7 34.8 0 48.5-4.6 13.6-13.6 24.9-26.5 33.8-12.9 8.9-29.6 15.6-49.7 20-20.1 4.4-43.6 6.6-70.1 6.6l-200.1 0-76.9-228.1 207.6 0c28.8 0 55.5 2.7 79.7 8 24.1 5.2 45.7 13 64.3 23 18.5 10 33.9 22.3 45.9 36.5 11.9 14.2 20.4 30.4 25.1 48.4m3042.3-198.8-162.8 469.8-132.9-231.3c-38.6 19.6-77.8 36.3-116.7 50.3-38.7 13.9-77.3 25.3-115 34.2-37.6 8.9-74.4 15.4-109.7 19.6-35.2 4.3-69 6.3-100.7 6.3-17 0-31.5-1.2-43.5-3.3-12.1-2.2-21.7-5.4-29.1-9.4-7.4-4-12.5-8.9-15.4-14.5-2.9-5.6-3.7-11.8-2.3-18.6l0.6-3.2c1.5-7.6 5.2-14.5 12.3-21 7.1-6.5 17.6-12.5 32.6-18.3 15.1-5.8 34.7-11.3 60.1-16.9 25.5-5.5 56.7-11.1 94.9-16.8 68.3-10 133.1-21.1 193.8-34.1 61.1-13.1 118.3-28 171-45.6 53.1-17.7 101.7-38.2 145.5-62.3 44.2-24.3 83.4-52.3 117.3-84.9m-209.2 603.6 431.1 0 554.7-1254.3-551.1 0-91.5 264.2c-9.5-44.6-29.1-85-58.3-120.8-29.6-36.2-68.9-67.5-117.3-93.1-48.9-25.9-107-45.9-173.4-59.5-66.7-13.7-141.6-20.7-223.7-20.7-55.7 0-110.9 2.6-165.5 7.6-54.5 5.1-108.1 12.6-160.6 22.6-52.3 10-103.4 22.4-153 37.2-49.3 14.7-96.9 31.7-142.7 50.9l49.6-88.4-598.1 0-89.8 207.6-556.2 0-102.8-207.6-925.6 0-176.4 424.4-109.1 0-143.1-424.4-551.1 0 91.8 212c-36.3-31.4-77.6-60.2-123.6-85.9-46.4-25.9-97.4-48.5-152.8-67.1-55.7-18.8-115.5-33.5-179.1-43.6-63.8-10.1-131.1-15.4-201.4-15.4l-913.8 0 865 1254.3 722.2 0c44.7 0 84.2-1.9 119.2-5.7 35-3.8 65.5-9.5 91.9-17 26.5-7.5 49-16.9 68-28.1 19.1-11.2 34.7-24.3 47.2-39.2 5-6 9.5-12.4 13.4-19.3 3.9-6.9 7.1-14.3 9.6-22.2 2.5-7.9 4.3-16.2 5.2-25.1 1-8.9 1.1-18.3 0.3-28.2l80 184.9 630.1 0c57.1 0 108.3-2.7 154.2-7.9 46-5.2 86.7-12.8 122.7-22.6 36.2-9.9 67.7-22 95-36.1 27.5-14.2 50.8-30.4 70.5-48.4 17-15.5 31.5-32.1 43.5-49.9 12.1-18 21.6-37.3 28.4-58.3 6.8-21.1 10.9-43.9 12.2-68.7 1.2-25-0.5-52.1-5.3-81.5-7.1-43.1-20.4-83.5-39.5-121-19.4-38.1-44.6-73.2-75.1-105.3-30.9-32.5-67.1-61.8-108-87.8-41.3-26.3-87.2-49.2-137.1-68.7l138.5-251.6 643.9 1014.8 426.7 0 509.9-907.1 142.2 174.3c44.5-27.5 90.4-51.3 137.1-71.4 47-20.3 94.7-36.8 142.4-49.9 47.9-13.1 95.8-22.7 143-29 47.3-6.3 93.8-9.3 139-9.3 23.2 0 42.7 1.4 58.7 4 16.1 2.7 28.7 6.6 38.1 11.7 9.4 5.1 15.6 11.4 18.9 18.8 3.2 7.3 3.5 15.7 1.1 25.1-2.8 10.8-8.2 20.2-17.4 28.6-9.2 8.4-22.1 16-40 23.1-17.8 7.1-40.5 13.7-69.2 20.4-28.7 6.6-63.3 13.3-105.1 20.4-87.2 15.1-171.6 31.7-249.7 52.3-77.5 20.4-148.6 44.7-209.6 75.4-60.3 30.3-110.5 66.6-147.1 111-35.9 43.7-58.5 95-64.5 155.7-5.3 54.1 2.3 103.8 22.4 147.9 19.7 43.2 51.4 81.1 94.6 112.2 42.7 30.7 96.9 55.1 162.4 71.7 65.1 16.5 141.7 25.5 230.3 25.5 60.2 0 117.2-2.6 171.6-7.9 54.5-5.3 106.5-13.2 156.5-23.9 50.2-10.7 98.6-24.1 145.5-40.3 47.3-16.3 93.2-35.5 138.3-57.6l-38.7 111.7" fill="#27337a"/><path d="m5065.2 2154.7c0-604.7-490.2-1095-1095-1095-604.7 0-1095 490.2-1095 1095 0 604.7 490.2 1095 1095 1095 604.7 0 1095-490.2 1095-1095" fill="#1081c5"/><path d="m4157.6 2698.9c-594 204.5-1138.2 188-1215.7-36.9l-80.7-234.4c77.4 224.9 621.7 241.5 1215.7 36.9 594-204.5 1012.7-552.6 935.2-777.6l80.7 234.5c77.4 224.9-341.3 573-935.2 777.6" fill="#fccb07"/><path d="m4076.8 2464.4c-594 204.5-1138.2 188-1215.7-36.9-17.4-50.4-9.8-107.1 19.1-166.9 1.1 11.6 2.4 23.2 3.9 34.7-12.9 41.2-13.9 80.2-1.6 115.9 74.2 215.5 605 228.1 1185.6 28.2 580.6-199.9 991.2-536.7 917-752.1-12.3-35.6-37.1-65.7-72.5-90.1-6-10-12.1-20-18.3-29.8 59.5 29.3 100.4 69.2 117.7 119.6 77.4 224.9-341.3 573-935.2 777.6" fill="#fff"/><path d="m2922.7 2474.5c-18.5-18.7-32-39.8-40.1-63.3-12.3-35.7-11.3-74.7 1.6-115.8 7.9 61.5 20.9 121.3 38.5 179.1M4912.8 1597.2c35.4 24.5 60.1 54.5 72.4 90.1 8.1 23.5 10.4 48.5 7.4 74.6-22.1-57.4-48.8-112.4-79.8-164.7" fill="#fccb07"/><path d="m3044.1 2661.7c-0.5-5.2 0-9.5 1.5-13.1 1.5-3.5 4.3-5.9 8.3-7.1 4-1.2 9.5-0.7 16.6 1.5 7.1 2.2 13.5 5.4 19.4 9.6 5.9 4.2 11.1 9 15.7 14.5 4.6 5.4 8.6 11.2 11.9 17.2 3.3 6 6 12 8.1 18 2.1 6.2 3.5 12 4.1 17.4 0.6 5.4 0.2 9.9-1.4 13.5-1.5 3.6-4.2 6-8.3 7.2-4 1.2-9.5 0.7-16.6-1.5-7.1-2.2-13.5-5.4-19.4-9.6-5.9-4.2-11.1-9.1-15.7-14.6-4.6-5.5-8.7-11.3-12.1-17.6-3.4-6.2-6.2-12.4-8.3-18.6-2-5.9-3.3-11.5-3.9-16.7zm-12.6 37.9c6.3 10 13.6 19.3 22 27.9 8.3 8.6 17.5 16.1 27.6 22.6 10.1 6.5 20.6 11.4 31.5 14.8 11.1 3.4 20.3 4.5 27.7 3.3 7.4-1.2 12.9-4.2 16.6-9.1 3.7-4.9 5.6-11.4 5.7-19.4 0.1-8.1-1.7-17.4-5.3-27.9-3.5-10.3-8.4-20.4-14.7-30.3-6.3-9.9-13.5-19.1-21.8-27.5-8.3-8.4-17.4-15.9-27.4-22.3-10-6.4-20.5-11.3-31.6-14.7-10.9-3.3-20.1-4.5-27.6-3.4-7.4 1.1-13 4-16.8 8.8-3.7 4.8-5.7 11.1-5.8 19-0.1 7.9 1.6 17 5.1 27.3 3.6 10.6 8.6 20.9 14.9 30.9M3241.4 2726.2c7.5 0.8 13.7 2.9 18.5 6.5 4.8 3.6 8.5 8.9 10.9 16 2.4 6.9 2.2 11.7-0.5 14.4-2.7 2.7-7.8 3.7-15.3 2.9l-35.8-3.7-13.7-39.8 35.8 3.7zm33.7 65.1c6.7 0.7 12.3 0.3 17-1.2 4.6-1.5 8.3-3.8 10.8-7 2.6-3.2 4.1-7 4.5-11.5 0.4-4.5-0.3-9.4-2.2-14.8-2.9-8.3-7.2-15.7-12.9-22.1-5.8-6.4-13.4-11.7-22.8-15.7l-0.1-0.4c3.7-0.6 6.4-1.9 8.3-3.8 1.9-1.9 3.2-4.2 3.8-7 0.6-2.8 0.7-5.9 0.3-9.4-0.5-3.5-1.2-7-2.1-10.5-0.6-2.2-1.4-4.8-2.3-7.9-0.9-3-1.7-6.1-2.5-9.2-0.7-3.1-1.2-6.1-1.4-8.8-0.2-2.8 0.1-5 1-6.9l-32.7-3.4c-0.3 4.3 0.5 9.5 2.2 15.7 1.7 6.2 3.1 12 4.3 17.6 1.4 7.3 0.9 12.4-1.5 15.5-2.4 3.1-7.7 4.2-15.9 3.3l-32.7-3.4-19-55.2-32.7-3.4 48.7 141.3 80.2 8.3M3358.9 2680.2c4.7-0.1 9.6 0.6 14.6 2 5 1.4 9.8 3.8 14.4 7.1 4.7 3.3 9 7.7 12.9 13.1 4 5.4 7.3 12 10 19.8 2.5 7.1 3.9 13.6 4.5 19.3 0.5 5.8-0.2 10.7-2.1 14.8-1.9 4.1-5.3 7.3-10 9.6-4.8 2.3-11.2 3.4-19.3 3.5l-23.4 0.3-30.7-89.1 29.3-0.3zm42 115.2c9.6-0.1 18.1-1.7 25.4-4.7 7.3-3 13-7.4 17.1-13.3 4.1-5.9 6.3-13.2 6.7-21.9 0.4-8.7-1.4-19-5.4-30.7-3.5-10.3-8.2-19.8-14-28.5-5.8-8.7-12.6-16.1-20.4-22.4-7.8-6.3-16.6-11.2-26.3-14.7-9.7-3.5-20.3-5.2-31.7-5.1l-64.5 0.8 48.7 141.3 64.5-0.8M3595.2 2782.6l-9-26.1-78.6 7.3-10.4-30.3 72.1-6.6-8.3-24.1-72.1 6.7-11.9-34.6 80.3-7.4-9-26.1-113 10.4 48.7 141.3 111.3-10.3M3657 2773.6l1-102.9 0.4-0.1 66.1 91.8 45.6-7.5-48.7-141.3-30.3 5 34.5 100.2-0.4 0.1-70.6-94.2-25 4.1-2 105.1-0.4 0.1-34.1-99.2-30.3 5 48.7 141.3 45.6-7.5M3950.1 2711.8l-9-26.1-76.6 19-10.4-30.3 70.3-17.5-8.3-24.1-70.3 17.5-11.9-34.6 78.2-19.4-9-26.1-110.1 27.4 48.7 141.3 108.5-27M4048.6 2609c3.6-1.1 7.1-2 10.7-2.5 3.5-0.5 6.8-0.4 9.8 0.3 3 0.7 5.8 2.2 8.3 4.5 2.5 2.3 4.5 5.7 6 10.2 1.6 4.5 2 8.4 1.5 11.6-0.6 3.3-1.9 6-3.9 8.4-2 2.3-4.6 4.3-7.7 5.9-3.1 1.6-6.5 2.9-10.1 4.1l-24.3 7.7-14.6-42.4 24.4-7.7zm31.5 63.8c8.9-2.8 16.1-6.5 21.4-11 5.4-4.5 9.3-9.6 11.8-15 2.5-5.5 3.7-11.2 3.6-17.2-0.1-6-1.1-11.9-3.1-17.7-2-5.7-4.8-11-8.5-15.9-3.7-4.9-8.2-8.8-13.6-11.8-5.4-3-11.6-4.8-18.8-5.4-7.1-0.6-15.2 0.5-24.1 3.3l-32.9 10.4-17.4-50.7-31.3 9.9 48.7 141.3 64.3-20.3M4181.5 2566.3c7.1-2.6 12.9-2.9 17.6-1.1 4.6 1.9 8.2 6.4 10.6 13.5 2.4 6.9 2.3 12.5-0.2 16.9-2.5 4.4-7.2 7.9-14.3 10.5l-33.8 12.4-13.7-39.8 33.8-12.4zm33 59.9c6.3-2.3 11.6-5.4 16-9.3 4.3-3.9 7.7-8.3 10.1-13.2 2.4-4.9 3.7-10 4-15.4 0.3-5.4-0.5-10.8-2.4-16.2-2.9-8.3-7.1-14.9-12.6-19.7-5.6-4.8-12.8-7.3-21.8-7.6l-0.1-0.4c3.4-2.4 6-5.2 7.8-8.3 1.7-3.1 2.9-6.4 3.4-9.9 0.6-3.5 0.6-7.2 0.1-11.1-0.5-3.8-1.2-7.6-2.2-11.2-0.6-2.3-1.4-5-2.3-8.1-0.9-3.1-1.8-6.3-2.5-9.6-0.8-3.3-1.3-6.5-1.5-9.6-0.3-3.1 0-5.9 0.8-8.4l-30.9 11.3c-0.1 5.1 0.6 10.8 2.4 17.2 1.7 6.3 3.2 12.5 4.4 18.5 1.5 7.8 1.1 14-1.1 18.7-2.2 4.7-7.2 8.4-14.9 11.3l-30.9 11.3-19-55.2-30.9 11.3 48.7 141.3 75.7-27.7M4265.9 2505.9c-0.6-6.2-0.2-12.1 1.2-17.9 1.4-5.7 4-11 7.9-15.7 3.8-4.7 9.1-8.5 16-11.4 6.8-2.9 13.1-4 18.8-3.3 5.7 0.7 10.8 2.7 15.3 5.9 4.5 3.2 8.4 7.4 11.7 12.4 3.3 5 6 10.5 8 16.5 2.1 6.2 3.5 12.5 4.2 18.9 0.7 6.4 0.3 12.5-1.1 18.3-1.4 5.8-4 11.1-7.8 15.8-3.8 4.7-9.1 8.5-16 11.4-6.8 2.9-13.1 4-18.7 3.3-5.7-0.7-10.8-2.7-15.3-6-4.5-3.3-8.5-7.6-11.8-12.8-3.3-5.2-6.1-11-8.2-17.1-2-5.9-3.3-12-3.9-18.2zm-11.6 58.4c6.2 7.7 13.4 13.7 21.5 18 8.1 4.3 17 6.6 26.8 6.8 9.7 0.3 19.9-1.8 30.4-6.3 10.7-4.5 19.5-10.4 26.6-17.8 7-7.4 12.3-15.6 15.8-24.8 3.5-9.2 5.2-18.9 5.2-29.3 0-10.3-1.9-20.8-5.5-31.3-3.5-10.3-8.4-19.2-14.5-26.8-6.1-7.6-13.3-13.5-21.3-17.6-8.1-4.2-16.9-6.3-26.6-6.6-9.6-0.2-19.8 1.9-30.5 6.4-10.5 4.5-19.4 10.3-26.5 17.7-7.1 7.3-12.4 15.5-16 24.5-3.5 9-5.3 18.7-5.3 28.9 0 10.2 1.7 20.5 5.3 30.8 3.6 10.6 8.6 19.7 14.7 27.4M4444.3 2365.3c-7.4 0.3-14.3 2.1-20.8 5.2-10.3 5-18.9 11.5-25.8 19.2-6.9 7.8-12 16.4-15.4 25.7-3.4 9.4-5 19.2-5 29.6 0.1 10.4 1.9 20.7 5.4 31 3.6 10.6 8.5 19.6 14.6 27.2 6.1 7.6 13.2 13.3 21.1 17.3 8 4 16.7 5.9 26.2 5.7 9.5-0.2 19.4-2.8 29.7-7.8 6.9-3.4 13.2-7.7 18.9-13.1 5.7-5.3 10.4-11.4 14.2-18.2 3.7-6.8 6.2-14.1 7.5-21.9 1.3-7.9 0.9-16-1.2-24.4l-28.2 13.8c1 8.8-0.4 16.4-4 22.8-3.6 6.4-9 11.4-16.2 14.9-6.6 3.3-12.7 4.7-18.3 4.2-5.6-0.4-10.6-2.2-15-5.4-4.4-3.1-8.3-7.3-11.6-12.4-3.3-5.2-6-10.8-8.2-17-2-5.9-3.4-12-4-18.3-0.6-6.2-0.3-12.3 1.1-18.2 1.3-5.9 3.9-11.3 7.6-16.3 3.7-5 8.9-9.1 15.5-12.3 9.8-4.8 18.2-5.9 25.3-3.3 7.1 2.6 12.8 8.6 17.1 18.1l-29.7 14.6 8 23.2 56.4-27.6-26.3-76.4-18.8 9.2 2.5 17.5c-7.7-4.5-15.3-6.7-22.6-6.4M4583.2 2381.4c6.6-3.7 12-4.9 16.4-3.6 4.4 1.3 7.8 5.5 10.2 12.7 2.4 6.9 2.4 12.8 0.2 17.7-2.2 5-6.6 9.3-13.2 13l-31.3 17.7-13.7-39.8 31.3-17.7zm32.2 58.2c5.8-3.3 10.7-7.3 14.7-12 4-4.7 7-9.8 9.1-15.2 2.1-5.4 3.2-11 3.4-16.7 0.2-5.7-0.7-11.2-2.6-16.6-2.9-8.3-6.9-14.6-12.2-18.8-5.3-4.2-12.2-5.9-20.5-4.9l-0.1-0.4c3.2-3 5.5-6.3 7.1-9.8 1.6-3.5 2.6-7.1 3-10.9 0.4-3.8 0.4-7.7-0.2-11.6-0.6-3.9-1.3-7.8-2.3-11.5-0.7-2.3-1.4-5-2.4-8.1-0.9-3.1-1.8-6.3-2.6-9.7-0.8-3.3-1.3-6.6-1.6-9.8-0.3-3.2-0.1-6.2 0.5-8.9l-28.6 16.2c0 5.4 0.8 11.3 2.6 17.7 1.8 6.4 3.3 12.7 4.5 18.7 1.6 7.9 1.4 14.5-0.6 19.7-2 5.2-6.5 9.9-13.7 13.9l-28.6 16.2-19-55.2-28.6 16.2 48.7 141.3 70.2-39.6M4760.1 2348.9l-9-26.1-66.1 43.1-10.4-30.3 60.7-39.5-8.3-24.1-60.7 39.5-11.9-34.6 67.5-44-9-26.1-95.1 61.9 48.7 141.3 93.7-61M4756.8 2217.7c0.3-4.4 1.3-8.5 3-12.4 1.7-3.9 4-7.5 6.8-11 2.9-3.4 6-6.5 9.5-9.1 2.3-1.8 4.9-3.5 7.7-5 2.8-1.6 5.6-2.6 8.4-3 2.8-0.5 5.4-0.1 7.7 1 2.3 1.1 4.1 3.5 5.4 7 1.3 3.8 1.4 7.7 0.1 11.7-1.2 4-3.2 8-6 12.1-2.8 4.1-6.1 8.4-9.9 12.8-3.8 4.4-7.6 9-11.4 13.8-4 4.7-7.7 9.6-11.3 14.8-3.6 5.1-6.5 10.5-8.7 16.1-2.3 5.6-3.7 11.4-4.1 17.6-0.5 6.1 0.4 12.4 2.6 18.9 2.5 7.3 6 12.6 10.4 15.9 4.4 3.4 9.4 5.2 14.8 5.6 5.4 0.3 11.1-0.7 17-3 5.9-2.3 11.5-5.6 16.9-9.6 6.2-4.7 11.9-10.1 17-16.1 5.1-6 9.3-12.6 12.5-19.6 3.2-7.1 5.1-14.5 5.7-22.2 0.6-7.7-0.5-15.7-3.3-23.9l-25.3 19.3c1.2 4.4 1.7 8.5 1.4 12.2-0.3 3.7-1.3 7.2-2.8 10.4-1.6 3.2-3.6 6.2-6.1 8.9-2.5 2.7-5.3 5.3-8.5 7.8-2.1 1.6-4.3 3-6.6 4-2.3 1.1-4.5 1.6-6.7 1.6-2.2 0-4.1-0.6-5.9-1.7-1.8-1.1-3.2-3.2-4.2-6.2-1-2.8-1.3-5.3-1-7.7 0.3-2.4 1.5-5.3 3.6-8.7 2.1-3.4 5.2-7.6 9.3-12.6 4.1-5 9.5-11.4 16.1-19.3 2-2.2 4.8-5.5 8.2-9.9 3.5-4.4 6.6-9.6 9.4-15.6 2.8-6 4.8-12.6 5.9-19.9 1.1-7.2 0.3-14.8-2.5-22.7-2.2-6.5-5.3-11.7-9.4-15.6-4-3.9-8.8-6.3-14.3-7.2-5.5-0.8-11.8 0-18.7 2.4-6.9 2.5-14.4 6.8-22.5 13-6.5 5-12.6 10.8-18 17.4-5.5 6.6-9.9 13.8-13.2 21.5-3.3 7.7-5.2 15.8-5.8 24.2-0.6 8.5 0.7 17 3.8 25.6l25.3-19.3c-1.6-4.7-2.3-9.3-2-13.7M4861.4 2133.1c0.2-4.5 1-8.9 2.5-13 1.5-4.1 3.5-8 6.1-11.8 2.6-3.8 5.5-7.1 8.6-10.1 2.1-2 4.5-3.9 7.1-5.8 2.6-1.8 5.2-3.1 7.8-3.8 2.6-0.7 5-0.6 7.2 0.4 2.2 1 3.9 3.2 5.2 6.8 1.3 3.8 1.5 7.8 0.4 12-1 4.2-2.8 8.5-5.3 12.9-2.5 4.5-5.4 9.1-8.9 14-3.4 4.9-6.9 9.9-10.3 15.1-3.6 5.2-7 10.5-10.2 16.1-3.2 5.6-5.8 11.3-7.8 17.2-2 5.9-3.1 12.1-3.4 18.4-0.3 6.3 0.7 12.7 2.9 19.2 2.5 7.3 5.9 12.4 10.1 15.5 4.2 3.1 8.9 4.6 13.9 4.5 5.1-0.1 10.3-1.6 15.8-4.5 5.5-2.9 10.6-6.6 15.5-11.3 5.7-5.4 10.8-11.4 15.5-18 4.7-6.6 8.4-13.7 11.1-21.2 2.8-7.5 4.4-15.3 4.8-23.3 0.4-8-0.8-16.1-3.6-24.3l-23.1 21.9c1.3 4.4 1.8 8.6 1.6 12.4-0.2 3.9-1 7.5-2.4 10.9-1.4 3.4-3.2 6.6-5.4 9.6-2.2 3-4.8 5.9-7.8 8.7-1.9 1.8-3.9 3.4-6 4.7-2.1 1.3-4.2 2-6.2 2.2-2 0.2-3.9-0.2-5.6-1.3-1.7-1-3.1-3-4.1-6.1-1-2.8-1.3-5.4-1.1-7.9 0.2-2.5 1.3-5.6 3.1-9.3 1.9-3.7 4.7-8.3 8.4-13.7 3.7-5.4 8.6-12.5 14.6-21.2 1.8-2.4 4.3-6.1 7.4-10.9 3.1-4.8 5.9-10.4 8.4-16.8 2.5-6.4 4.2-13.4 5-20.9 0.8-7.5-0.1-15.2-2.8-23.2-2.2-6.5-5.2-11.6-9.1-15.3-3.8-3.7-8.3-5.8-13.5-6.2-5.2-0.4-11 0.9-17.3 4-6.4 3.1-13.3 8.2-20.7 15.2-6 5.7-11.4 12.1-16.4 19.4-4.9 7.3-8.9 15-11.8 23.1-2.9 8.2-4.5 16.6-4.9 25.4-0.3 8.7 1 17.4 4.1 26l23.1-21.9c-1.6-4.7-2.4-9.4-2.2-13.9M4963.8 2052.2c-1.1-6.8-1.5-13.7-1.1-20.8 0.3-7.1 1.5-14.1 3.6-21 2.1-6.9 5.3-13.4 9.6-19.4 4.3-6 8.4-9.8 12.4-11.2 3.9-1.5 7.6-1.3 11 0.6 3.4 1.9 6.5 5 9.3 9.4 2.8 4.4 5.2 9.6 7.2 15.5 2.1 6.2 3.8 12.8 4.9 19.8 1.2 7 1.6 14.1 1.3 21.2-0.3 7.2-1.5 14.2-3.6 21.1-2.1 6.9-5.3 13.4-9.6 19.4-4.3 6-8.4 9.8-12.4 11.3-3.9 1.5-7.6 1.3-11.1-0.7-3.4-1.9-6.6-5.2-9.4-9.8-2.8-4.6-5.3-10-7.5-16.2-2-5.9-3.6-12.3-4.7-19.1zm-1.4 71.1c5.1 6.3 10.6 10.3 16.6 11.9 6 1.6 12.3 0.6 18.9-3 6.6-3.6 13.3-10.1 20-19.4 6.8-9.4 12.1-19.7 16.1-30.9 4-11.2 6.6-22.7 8-34.5 1.3-11.8 1.4-23.6 0.3-35.4-1.2-11.8-3.6-22.9-7.2-33.5-3.5-10.3-7.8-18.5-12.8-24.7-5-6.2-10.5-10-16.4-11.5-5.9-1.5-12.2-0.4-18.8 3.2-6.6 3.6-13.2 10.1-20 19.5-6.7 9.3-12 19.6-16 30.7-4 11.2-6.7 22.6-8.1 34.3-1.4 11.7-1.5 23.4-0.4 35 1.1 11.6 3.5 22.6 7 32.9 3.6 10.6 8 19 13.1 25.3" fill="#23522f"/><path d="m3936.2 1242.2-7.5-15.2-19.6-1.1 15.1-10.6-5.5-14.6 17.5 8.5 16.5-8.4-4.9 14.2 15.5 10.7-19.9 1.1-7.2 15.5M4290.9 2658.3l12.5 54.2-44.5 37.5 56.4 1.6 20.5 48.6 23.2-51.7 56.8-7.2-42.2-32.8 16.1-54.1-49.5 32.4-49.4-28.2M2996.9 2419.7l-15.4-42-33.4-5.5 23.6-26.4-10.3-43.7 30.3 24.8 28.3-22.6-6.4 43 30.3 30.9-36.5 1-10.3 40.6M2978.3 1832.7l-7.6-32.6-26.9 1.5 22.9-25.9-3-33.3 21.2 15.3 26.3-22.5-10.6 35.2 20.4 20.8-29 5.9-13.6 35.6M3067.3 1932.1c-0.8-0.8-11.7-41.1-11.7-41.1l-35.6-0.2 28.4-30.3-5.7-42.4 29.7 19.9 33.5-26.5-12.1 44.3 28.4 26.9-38.6 5.9-16.3 43.5M3157.8 1974.7l-7.6-23.4-20.9-0.2 16.4-17.4-4.1-23.8 17.8 11.9 18.9-14.1-6.4 24.2 17.6 16-22.8 2.7-8.8 24M3233.6 1588.8l23.4 13.5 26.8-19-9.6 30.5 21.1 18-30.2 5.5-13.5 30.7-8.6-28.1-28.6 1 23.7-22.4-4.4-29.7M3282.9 1794.7l-11.7-34.6-34.6 0 28.4-26.8-6.5-35.4 28.9 16.7 32.3-22.1-11.4 37 26.8 22.9-36.2 5.2-15.9 37.2M3420.3 1554.6l-13.5-38.6-42.8 1.6 35.4-30.6-6.8-38.8 34.8 17.9 38.8-25.3-13.9 41 32.4 24.1-44.8 6.8-19.5 41.8M3438.4 2170.4l-15-39.6-39.1-2.8 29.5-26.4-8.8-40.4 33.2 21.5 33.4-22.8-9.6 39.9 30.3 26.9-39.6 3.6-14.2 40.2M4229.7 2248.7l-13.9-34.4-35.6-2.5 27.1-23.6-9.3-35 31.2 19.2 30.2-19.9-8.5 35.6 27.9 23-35.6 2.7-13.3 35M3763.9 1857.9l-13.7-32.6-34.9-1.7 26.9-23-8.6-34 30.7 18.2 29.9-19.1-8.6 33.4 27.5 22.9-35.7 2.7-13.5 33.4M3857.6 1776.9l-9.8-24.4-26.6-1.6 20.1-16.6-6.6-25.4 23 13.3 22.8-14.4-6.6 25.6 21.1 16.4-27.1 2.2-10.3 25M4062.6 1878.8l-16.8-39.6-42-2.5 31.8-26.9-10.9-39.6 36.5 21.7 35.5-22.3-9.8 40.2 33.4 27-42.6 2.2-15.2 40M3944.3 1990.7l-16.2-40.6-43-2.5 32.2-27.3-10.3-41.4 36.5 22.1 36.3-23-10.1 41.2 33.4 27.7-42.8 2.5-16 41.4M3934 1633l-18.9-43.3-49-2.7 37.9-29.7-12-43.6 41.5 23.4 41.8-24.3-11.7 43.9 37.6 28.9-48.7 3.3-18.3 44.2M4190.2 1497.6l-14.1-30.5-34.4-2.9 25.3-19.5-9.6-29.9 30.2 16.7 27.9-14.6-6.8 28.6 27.1 21.4-33.8 1-11.7 29.7M4282.1 1373.5l-17.2-31.8-39.3-4.2 28.4-20-11.4-31.2 34.1 18 30.7-15.1-6.8 31 30.7 22.7-37.7-0.3-11.5 31M4350 1444.3l32.3 4.2 14.8 29.2 9.9-27.6 31.2 0.3-25.8-20.8 5-28.9-25.8 14.3-28.6-17.4 10.9 29.2-23.9 17.7M4509.9 1306.3l-15.1-25.2-29.7-5.7 19.8-13.5-10.9-25 27.1 15.6 22.4-9.4-3.1 23.2 24.7 19-28.4-1.8-6.8 22.9M4526 1416.9l-17.4-32.8-36.2-5.7 25.3-18.2-12.8-31.8 32.5 20.3 27.1-14.1-4.4 30.2 29.9 24-34.6-1.6-9.4 29.7M4534.2 1512.9l-14.4-29.5-31.6-5 21.7-17.3-10.8-29.2 28.4 17.9 24.2-13.1-4.2 27.8 25.8 21.7-30.4-0.9-8.7 27.5M4641 1521.5l-14.4-28.9-29.5-5.3 20.1-16.6-10.5-28.6 26.6 17.9 22.7-12.3-3.3 27.4 24.9 21.4-28.7-1.7-7.7 26.6M4743.6 1585.5l-16-34.2-33.7-6.8 22.3-19.1-12.8-34 30.3 21.7 24.3-14.4-2.7 32.1 27.2 25.2-30.9-1.8-8.1 31.5M4800.5 1677l-15.5-34.5-33-6.4 22.4-20.4-11.9-34.6 29.5 21.7 23.6-15.2-3 33 27.1 25.8-30.7-1.7-8.4 32.2M4772.7 1795.6l-17.9-43.3-40.9-6.2 28.6-26.1-14-43.9 36.3 26.5 30.3-19.9-5.2 41.2 32.7 31.3-38.8-0.5-11.1 41M4909.8 1780l-12.2-29.9-25.5-5.2 17.2-17.3-9.4-30.1 23.1 18.4 18.4-13.2-2 29 20.4 21.1-23.7-1.1-6.2 28.3" fill="#fff"/></g></g></svg>
