<svg xmlns="http://www.w3.org/2000/svg" width="29" height="29"><g transform="translate(-266.25038,-231.68594)"><path d="m292.4 237.8c-0.1 0-0.2-0.1-0.2-0.2 0-1-1.8-2.6-4.1-2.6l-2.5 0-4.8 3.6-4.8-3.6-2.5 0c-2.4 0-4.1 1.6-4.1 2.6 0 0.1-0.1 0.2-0.2 0.2-0.1 0-0.2-0.1-0.2-0.2 0-1.4 2.1-3.1 4.6-3.1l2.4 0 0.6-0.6c0.1-0.1 0.2-0.1 0.3 0l3.9 4.6 3.9-4.6c0.1-0.1 0.2-0.1 0.3 0l0.6 0.6 2.4 0c2.5 0 4.6 1.7 4.6 3.1 0 0.1-0.1 0.2-0.2 0.2zm-3 10.4c-0.1 0.7-0.2 1-0.3 1 0 0.1-0.1 0.1-0.2 0.1-0.1 0-0.1-0.1-0.1-0.2 0 0 0.1-0.3 0.2-0.9 0.1-0.6-0.2-1.1-0.2-1.1 0-0.1 0-0.2 0.1-0.2 0.1 0 0.1 0 0.2 0 0 0 0 0 0 0.1 0 0 0.3 0.6 0.2 1.3zm-1 0.8c0 0.1-0.1 0.1-0.2 0.1-0.1 0-0.1-0.1-0.1-0.2 0 0 0.1-0.3 0.1-0.9 0-0.6-0.3-1.1-0.3-1.1 0-0.1 0-0.2 0.1-0.2 0.1 0 0.1 0 0.2 0 0 0 0 0 0 0 0 0 0.3 0.6 0.3 1.3 0 0.7-0.1 1-0.2 1zm-0.7-0.4c-0.3 1.2-0.8 2.2-0.9 2.6-0.2 0.4-0.3 0.9-0.2 2.2 0 1.3 0 2.2-0.1 2.5 0 0.2-0.2 0.3-0.4 0.3-0.2 0-0.3-0.1-0.4-0.4-0.1-0.5-0.3-2.6-0.3-2.9 0-0.2-0.2-0.4-0.3-0.4-0.1 0-0.2 0.1-0.3 0.5-0.2 0.9-0.5 3.1-0.6 3.6-0.1 0.5-0.3 0.6-0.4 0.6-0.1 0-0.1 0-0.1 0 0 0 0 0 0 0-0.1 0-0.4 0-0.4-0.4 0-0.5 0.4-3.5 0.4-3.8 0-0.2 0-0.3-0.1-0.3-0.1 0-0.1 0.1-0.2 0.2-0.3 0.4-1.7 2.9-2.1 3.7-0.1 0.2-0.2 0.2-0.4 0.2-0.1 0-0.2 0-0.3-0.1-0.1-0.1-0.3-0.4-0.2-0.6 0.1-0.2 1.5-3.4 1.7-3.8 0.1-0.3 0.1-0.5-0.1-0.5-0.1 0-0.2 0.1-0.4 0.2-0.5 0.5-2.4 2.5-2.7 2.7-0.1 0.1-0.2 0.2-0.3 0.2-0.1 0-0.2-0.1-0.3-0.2-0.2-0.2-0.2-0.4-0.1-0.6 0.2-0.2 2.6-3.3 3-4.1 0.4-0.7 1-1.9-0.2-1.9-0.1 0-0.1 0-0.2 0-0.5 0-0.8 0.1-1.1 0.1-0.5 0-0.7-0.1-0.8-0.1-0.2-0.1-0.6-0.3-0.5-0.6 0.1-0.2 0.7-0.1 1-0.2 0.2-0.1 0.2-0.1 0.2-0.1 0 0 1.1-0.3 1.8-0.7 0.7-0.4 2.3-1.1 2.7-1.1 0.2 0 0.4-0.1 0.6-0.1 0.3 0 0.6 0 0.7 0.1 0.3 0.1 0.6 0.9 2 1.5 0 0 0.6 0.6 0.3 1.8zm-11.7 2.2c-0.4-1.2-0.6-2.3-0.6-2.7-0.1-0.4-0.3-0.9-1-1.9-0.7-1-1.2-1.8-1.3-2.1-0.1-0.2 0.1-0.5 0.4-0.5 0.1 0 0.2 0 0.3 0.2 0.4 0.4 1.7 2 1.9 2.2 0.1 0.1 0.3 0.2 0.4 0.2 0.2 0 0.2-0.1 0.1-0.6-0.3-0.9-1.3-2.9-1.5-3.3-0.3-0.7 0.1-0.7 0.1-0.7 0 0 0.1-0.1 0.2-0.1 0.1 0 0.2 0 0.3 0.2 0.2 0.4 1.6 3.2 1.8 3.4 0.1 0.1 0.2 0.2 0.3 0.2 0.1 0 0.1-0.1 0.1-0.3 0-0.5-0.2-3.3-0.3-4.2 0-0.3 0.3-0.5 0.5-0.5 0 0 0 0 0 0 0.2 0 0.4 0.2 0.5 0.4 0.1 0.2 0.6 3.7 0.7 4.2 0 0.2 0.2 0.4 0.3 0.4 0.1 0 0.2-0.1 0.3-0.4 0.1-0.7 0.7-3.4 0.7-3.7 0-0.3 0.2-0.4 0.4-0.4 0 0 0.1 0 0.1 0 0.2 0 0.4 0.2 0.4 0.5 0 0.3-0.3 3.7-0.2 4.8-0.5 0.2-1 0.4-1.3 0.4l0 0 0 0-0.2 0.1c0 0-0.1 0-0.2 0-0.4 0-1 0-1.3 0.6-0.1 0.3-0.2 0.6-0.1 0.8 0.2 0.5 0.8 0.8 0.9 0.9 0 0 0 0 0 0 0.2 0.1 0.5 0.2 1.1 0.2 0.3 0 0.6 0 1.1-0.1-0.1 0.2-0.2 0.4-0.3 0.6l-0.1 0.1c-0.2 0.3-0.8 1.2-1.8 2.5-0.2 0-0.3 0-0.5 0-0.3 0-0.6 0-0.9 0.1 0 0-0.8-0.1-1.3-1.3zm0.8 2.2c0 0.1-0.1 0.1-0.2 0.1 0 0 0 0-0.1 0 0 0-0.6-0.2-1-0.8-0.4-0.6-0.5-0.9-0.5-0.9 0-0.1 0-0.2 0.1-0.2 0.1 0 0.2 0 0.2 0.1 0 0 0.1 0.3 0.4 0.8 0.4 0.5 0.9 0.7 0.9 0.7 0.1 0 0.1 0.1 0.1 0.2zm-0.9 0.4c0 0.1-0.1 0.1-0.1 0.1 0 0-0.1 0-0.1 0 0 0-0.6-0.3-0.9-0.9-0.4-0.6-0.4-0.9-0.4-1 0-0.1 0.1-0.2 0.1-0.2 0.1 0 0.2 0.1 0.2 0.1 0 0 0 0.3 0.4 0.8 0.3 0.5 0.8 0.8 0.8 0.8 0.1 0 0.1 0.1 0.1 0.2zm14.9-21.8-20.2 0c-2.4 0-4.4 2-4.4 4.4l0 20.2c0 2.4 2 4.4 4.4 4.4l20.2 0c2.4 0 4.4-2 4.4-4.4l0-20.2c0-2.4-2-4.4-4.4-4.4" fill="#1c4f9c"/></g></svg>
