<svg xmlns="http://www.w3.org/2000/svg" xmlns:xlink="http://www.w3.org/1999/xlink" width="153" height="48" viewBox="0 0 573.54899 178.51"><path d="M573.55 136.65c0 2.892-2.457 5.255-5.454 5.255H5.933c-3.005 0-5.456-2.363-5.456-5.253V37.796c0-2.89 2.45-5.258 5.456-5.258h562.163c2.997 0 5.453 2.367 5.453 5.258v98.856z" fill="#fd0"/><path fill="#b49c00" d="M216.397 82.286l56.563 37.245 57.964-37.272-56.563 32.915z"/><path fill="#005f2a" d="M317.376 90.97l-.28-.668-42.735 24.87-43.852-24.88-.42 1.01 42.872 28.23z"/><text x="82.932" y="264.187" transform="matrix(1.0369 0 0 .96442 -98.764 -112.43)" fill="#2b853e"><tspan x="82.932" y="264.187" font-weight="800" font-family="Open Sans" font-size="159">BRASIL</tspan></text><g transform="translate(-98.764 -112.43)"><defs><path id="a" d="M372.377 229.1l57.31-34.412-57.31-34.412-57.305 34.412z"/></defs><use height="100%" width="100%" xlink:href="#a" overflow="visible" fill="#f47920"/></g><g transform="translate(-98.764 -112.43)"><defs><path id="b" d="M351.77 194.688c0 11.383 9.228 20.608 20.607 20.608 11.386 0 20.617-9.226 20.617-20.608 0-11.39-9.23-20.612-20.617-20.612-11.38 0-20.606 9.223-20.606 20.612"/></defs><use height="100%" width="100%" xlink:href="#b" overflow="visible" fill="#1e4382"/></g><path d="M253.933 76.125a20.742 20.742 0 0 0-.802 3.854c12.982-3.728 28.68-.55 40.237 8.188.37-1.23.624-2.505.753-3.812-11.738-8.248-27.055-11.364-40.187-8.23" fill="#fff"/><g fill="#fff"><text x="101.093" y="140.659" font-size="28.161" transform="translate(-98.764 -112.43)"><tspan x="101" y="140" font-weight="700" font-size="28" font-family="Open Sans" letter-spacing="21">GOVERNO FEDERAL</tspan></text><text x="101" y="286" font-size="40" transform="translate(-98.764 -112.43)"><tspan x="101" y="286" font-weight="700" font-size="28" font-family="Open Sans" letter-spacing="18">PÁTRIA EDUCADORA</tspan></text></g></svg>
